<svg xmlns="http://www.w3.org/2000/svg" xmlns:xlink="http://www.w3.org/1999/xlink" width="500" zoomAndPan="magnify" viewBox="0 0 375 374.999991" height="500" preserveAspectRatio="xMidYMid meet" version="1.0"><defs><g/><clipPath id="327cd2af4c"><path d="M 149 128.3125 L 223 128.3125 L 223 132 L 149 132 Z M 149 128.3125 " clip-rule="nonzero"/></clipPath><clipPath id="1f1d2e11cb"><path d="M 129 164 L 246.488281 164 L 246.488281 192 L 129 192 Z M 129 164 " clip-rule="nonzero"/></clipPath><clipPath id="ead79c1fb9"><path d="M 137 184 L 226 184 L 226 195.0625 L 137 195.0625 Z M 137 184 " clip-rule="nonzero"/></clipPath></defs><path fill="#ffffff" d="M 147.96875 132.867188 C 171.476562 135.085938 195.429688 136.753906 218.941406 133.644531 L 223.597656 132.867188 C 211.289062 135.863281 198.425781 136.421875 185.78125 136.308594 C 173.140625 135.976562 160.5 134.867188 147.96875 132.867188 Z M 147.96875 132.867188 " fill-opacity="1" fill-rule="nonzero"/><g clip-path="url(#327cd2af4c)"><path fill="#ffffff" d="M 149.410156 131.535156 C 171.808594 127.3125 195.097656 127.3125 217.71875 130.757812 L 222.15625 131.535156 C 197.980469 128.757812 173.585938 128.535156 149.410156 131.535156 Z M 149.410156 131.535156 " fill-opacity="1" fill-rule="nonzero"/></g><path fill="#ffffff" d="M 223.597656 140.308594 C 229.03125 138.753906 238.015625 138.417969 239.234375 145.527344 C 239.789062 149.191406 238.789062 153.191406 236.792969 156.300781 C 232.800781 162.632812 226.703125 167.183594 219.9375 169.960938 L 216.5 171.183594 L 212.953125 172.183594 C 217.609375 170.738281 221.933594 168.628906 225.925781 165.964844 C 230.695312 162.632812 235.242188 158.1875 237.460938 152.746094 C 241.453125 141.195312 233.46875 138.53125 223.597656 140.308594 Z M 223.597656 140.308594 " fill-opacity="1" fill-rule="nonzero"/><path fill="#ffffff" d="M 147.96875 134.308594 C 150.519531 149.082031 153.957031 164.632812 163.160156 176.847656 C 164.492188 178.515625 166.042969 180.179688 167.707031 181.511719 C 154.175781 171.851562 149.1875 150.082031 147.96875 134.308594 Z M 147.96875 134.308594 " fill-opacity="1" fill-rule="nonzero"/><path fill="#ffffff" d="M 223.597656 134.308594 C 222.820312 151.636719 217.71875 170.40625 204.855469 182.625 C 206.1875 180.847656 207.738281 179.292969 208.960938 177.402344 C 217.71875 164.851562 221.601562 149.414062 223.597656 134.308594 Z M 223.597656 134.308594 " fill-opacity="1" fill-rule="nonzero"/><path fill="#ffffff" d="M 167.59375 183.511719 C 178.019531 185.734375 188.886719 187.289062 199.3125 184.84375 C 200.863281 184.621094 202.195312 183.957031 203.746094 183.511719 C 192.65625 189.175781 179.019531 187.398438 167.59375 183.511719 Z M 167.59375 183.511719 " fill-opacity="1" fill-rule="nonzero"/><g clip-path="url(#1f1d2e11cb)"><path fill="#ffffff" d="M 188.554688 191.84375 C 182.898438 191.84375 179.238281 191.621094 179.019531 191.621094 C 130.003906 190.953125 129.003906 178.402344 129.003906 177.847656 C 129.890625 166.519531 155.285156 165.964844 156.285156 165.851562 L 156.285156 166.964844 C 156.0625 166.964844 130.777344 167.628906 130.003906 177.847656 C 130.003906 177.847656 131.332031 189.84375 179.019531 190.507812 C 179.460938 190.507812 222.933594 193.617188 243.890625 178.402344 C 244.222656 178.070312 245.886719 175.738281 244.777344 173.183594 C 243.335938 169.960938 237.238281 165.964844 216.390625 165.410156 L 216.390625 164.296875 C 233.578125 164.742188 243.449219 167.628906 245.777344 172.738281 C 247.21875 176.070312 244.890625 178.957031 244.777344 179.070312 L 244.667969 179.179688 C 229.476562 190.175781 202.75 191.84375 188.554688 191.84375 Z M 188.554688 191.84375 " fill-opacity="1" fill-rule="nonzero"/></g><g clip-path="url(#ead79c1fb9)"><path fill="#ffffff" d="M 183.898438 195.0625 C 180.570312 195.0625 178.683594 194.839844 178.683594 194.839844 C 158.722656 194.839844 137.652344 185.511719 137.542969 185.398438 L 137.875 184.511719 C 138.097656 184.621094 158.945312 193.839844 178.683594 193.839844 C 178.90625 193.839844 198.867188 195.730469 224.929688 186.734375 L 225.261719 187.734375 C 206.851562 194.175781 191.550781 195.0625 183.898438 195.0625 Z M 183.898438 195.0625 " fill-opacity="1" fill-rule="nonzero"/></g><g fill="#ffffff" fill-opacity="1"><g transform="translate(72.496182, 224.337115)"><g><path d="M 1.609375 -2.9375 L 8.15625 -12.796875 C 8.332031 -13.054688 9.019531 -13.972656 10.21875 -15.546875 L 10.140625 -15.625 C 9.378906 -15.488281 8.023438 -15.421875 6.078125 -15.421875 L 1.890625 -15.421875 C 1.828125 -15.691406 1.796875 -16.019531 1.796875 -16.40625 C 1.796875 -16.800781 1.863281 -17.253906 2 -17.765625 L 12.71875 -17.765625 C 12.976562 -16.878906 13.109375 -16.265625 13.109375 -15.921875 C 13.109375 -15.585938 12.984375 -15.238281 12.734375 -14.875 L 6.21875 -5.09375 C 5.8125 -4.488281 5.132812 -3.5625 4.1875 -2.3125 L 4.265625 -2.234375 C 5.359375 -2.335938 6.398438 -2.390625 7.390625 -2.390625 L 10.09375 -2.390625 C 11.476562 -2.390625 12.5 -2.554688 13.15625 -2.890625 C 13.3125 -2.421875 13.390625 -1.96875 13.390625 -1.53125 C 13.390625 -0.507812 12.75 0 11.46875 0 L 1.59375 0 C 1.363281 -0.863281 1.25 -1.476562 1.25 -1.84375 C 1.25 -2.207031 1.367188 -2.570312 1.609375 -2.9375 Z M 1.609375 -2.9375 "/></g></g></g><g fill="#ffffff" fill-opacity="1"><g transform="translate(95.293721, 224.337115)"><g><path d="M 11.15625 -4.3125 L 9.59375 -4.296875 L 6.03125 -4.296875 L 4.53125 -4.3125 L 3.140625 0.03125 C 2.847656 0.09375 2.457031 0.125 1.96875 0.125 C 1.488281 0.125 1.03125 0.0664062 0.59375 -0.046875 L 0.515625 -0.1875 L 6.390625 -17.765625 C 6.753906 -17.828125 7.28125 -17.859375 7.96875 -17.859375 C 8.664062 -17.859375 9.191406 -17.828125 9.546875 -17.765625 L 15.359375 -0.1875 C 14.992188 0.0625 14.523438 0.1875 13.953125 0.1875 C 13.390625 0.1875 12.984375 0.0820312 12.734375 -0.125 C 12.492188 -0.332031 12.285156 -0.71875 12.109375 -1.28125 Z M 5.21875 -6.546875 L 6.546875 -6.578125 L 9.15625 -6.578125 C 9.863281 -6.554688 10.296875 -6.546875 10.453125 -6.546875 L 9.25 -10.328125 C 8.644531 -12.265625 8.1875 -13.832031 7.875 -15.03125 L 7.75 -15.03125 C 7.539062 -14.070312 7.203125 -12.816406 6.734375 -11.265625 Z M 5.21875 -6.546875 "/></g></g></g><g fill="#ffffff" fill-opacity="1"><g transform="translate(119.364874, 224.337115)"><g><path d="M 5.09375 -15.421875 L 5.125 -12.34375 L 5.125 -10.0625 C 5.382812 -10.082031 5.75 -10.09375 6.21875 -10.09375 L 11.4375 -10.09375 C 11.519531 -9.789062 11.5625 -9.398438 11.5625 -8.921875 C 11.5625 -8.453125 11.519531 -8.070312 11.4375 -7.78125 L 5.125 -7.78125 L 5.125 0 C 4.726562 0.0703125 4.257812 0.109375 3.71875 0.109375 C 3.175781 0.109375 2.722656 0.0703125 2.359375 0 L 2.359375 -17.609375 L 2.515625 -17.765625 L 12.8125 -17.765625 C 12.914062 -17.453125 12.96875 -17.085938 12.96875 -16.671875 C 12.96875 -15.816406 12.445312 -15.390625 11.40625 -15.390625 L 7.59375 -15.390625 C 6.414062 -15.390625 5.582031 -15.398438 5.09375 -15.421875 Z M 5.09375 -15.421875 "/></g></g></g><g fill="#ffffff" fill-opacity="1"><g transform="translate(141.122717, 224.337115)"><g><path d="M 15.265625 -17.765625 L 15.265625 -6.234375 C 15.265625 -4.117188 14.671875 -2.492188 13.484375 -1.359375 C 12.304688 -0.222656 10.707031 0.34375 8.6875 0.34375 C 6.675781 0.34375 5.078125 -0.21875 3.890625 -1.34375 C 2.710938 -2.476562 2.125 -4.109375 2.125 -6.234375 L 2.125 -17.703125 L 2.28125 -17.859375 L 3.359375 -17.859375 C 3.910156 -17.859375 4.300781 -17.71875 4.53125 -17.4375 C 4.769531 -17.164062 4.890625 -16.71875 4.890625 -16.09375 L 4.890625 -6.234375 C 4.890625 -4.816406 5.207031 -3.738281 5.84375 -3 C 6.488281 -2.257812 7.4375 -1.890625 8.6875 -1.890625 C 11.21875 -1.890625 12.484375 -3.335938 12.484375 -6.234375 L 12.484375 -17.765625 C 12.671875 -17.796875 12.882812 -17.816406 13.125 -17.828125 C 13.375 -17.847656 13.617188 -17.859375 13.859375 -17.859375 C 14.117188 -17.859375 14.367188 -17.847656 14.609375 -17.828125 C 14.847656 -17.816406 15.066406 -17.796875 15.265625 -17.765625 Z M 15.265625 -17.765625 "/></g></g></g><g fill="#ffffff" fill-opacity="1"><g transform="translate(166.701422, 224.337115)"><g><path d="M 0.78125 -1.609375 C 0.851562 -2.460938 1.242188 -3.175781 1.953125 -3.75 C 3.753906 -2.5625 5.492188 -1.96875 7.171875 -1.96875 C 8.191406 -1.96875 9 -2.191406 9.59375 -2.640625 C 10.195312 -3.097656 10.5 -3.691406 10.5 -4.421875 C 10.5 -5.617188 9.710938 -6.554688 8.140625 -7.234375 L 5.0625 -8.546875 C 2.695312 -9.578125 1.515625 -11.078125 1.515625 -13.046875 C 1.515625 -13.765625 1.660156 -14.429688 1.953125 -15.046875 C 2.242188 -15.660156 2.648438 -16.203125 3.171875 -16.671875 C 3.691406 -17.140625 4.316406 -17.492188 5.046875 -17.734375 C 5.785156 -17.972656 6.597656 -18.09375 7.484375 -18.09375 C 9.304688 -18.09375 11.109375 -17.644531 12.890625 -16.75 C 12.878906 -15.914062 12.539062 -15.195312 11.875 -14.59375 C 10.21875 -15.40625 8.738281 -15.8125 7.4375 -15.8125 C 6.5 -15.8125 5.742188 -15.582031 5.171875 -15.125 C 4.597656 -14.664062 4.3125 -14.125 4.3125 -13.5 C 4.3125 -12.851562 4.488281 -12.351562 4.84375 -12 C 5.195312 -11.644531 5.738281 -11.320312 6.46875 -11.03125 L 9.484375 -9.71875 C 10.785156 -9.164062 11.757812 -8.492188 12.40625 -7.703125 C 13.0625 -6.921875 13.390625 -5.984375 13.390625 -4.890625 C 13.390625 -3.328125 12.847656 -2.0625 11.765625 -1.09375 C 10.679688 -0.132812 9.039062 0.34375 6.84375 0.34375 C 4.632812 0.34375 2.613281 -0.304688 0.78125 -1.609375 Z M 0.78125 -1.609375 "/></g></g></g><g fill="#ffffff" fill-opacity="1"><g transform="translate(189.343007, 224.337115)"><g><path d="M 4.984375 -13.546875 C 4.691406 -12.816406 4.484375 -12.078125 4.359375 -11.328125 C 4.242188 -10.585938 4.1875 -9.816406 4.1875 -9.015625 C 4.1875 -8.140625 4.242188 -7.269531 4.359375 -6.40625 C 4.484375 -5.550781 4.707031 -4.785156 5.03125 -4.109375 C 5.363281 -3.429688 5.816406 -2.890625 6.390625 -2.484375 C 6.960938 -2.078125 7.691406 -1.875 8.578125 -1.875 C 9.535156 -1.875 10.296875 -2.109375 10.859375 -2.578125 C 11.421875 -3.054688 11.851562 -3.648438 12.15625 -4.359375 C 12.457031 -5.078125 12.65625 -5.84375 12.75 -6.65625 C 12.84375 -7.46875 12.890625 -8.210938 12.890625 -8.890625 C 12.890625 -9.585938 12.84375 -10.34375 12.75 -11.15625 C 12.65625 -11.96875 12.457031 -12.722656 12.15625 -13.421875 C 11.863281 -14.128906 11.425781 -14.71875 10.84375 -15.1875 C 10.269531 -15.65625 9.503906 -15.890625 8.546875 -15.890625 C 7.671875 -15.890625 6.929688 -15.679688 6.328125 -15.265625 C 5.734375 -14.847656 5.285156 -14.273438 4.984375 -13.546875 Z M 4.0625 -1.21875 C 2.207031 -2.8125 1.28125 -5.359375 1.28125 -8.859375 C 1.28125 -10.285156 1.4375 -11.566406 1.75 -12.703125 C 2.070312 -13.835938 2.539062 -14.800781 3.15625 -15.59375 C 3.769531 -16.394531 4.523438 -17.007812 5.421875 -17.4375 C 6.328125 -17.875 7.367188 -18.09375 8.546875 -18.09375 C 9.710938 -18.09375 10.75 -17.878906 11.65625 -17.453125 C 12.570312 -17.035156 13.332031 -16.425781 13.9375 -15.625 C 14.539062 -14.832031 15.003906 -13.863281 15.328125 -12.71875 C 15.648438 -11.570312 15.8125 -10.285156 15.8125 -8.859375 C 15.8125 -7.441406 15.648438 -6.164062 15.328125 -5.03125 C 15.003906 -3.894531 14.539062 -2.925781 13.9375 -2.125 C 13.332031 -1.332031 12.570312 -0.722656 11.65625 -0.296875 C 10.75 0.128906 9.710938 0.34375 8.546875 0.34375 C 6.710938 0.34375 5.21875 -0.175781 4.0625 -1.21875 Z M 4.0625 -1.21875 "/></g></g></g><g fill="#ffffff" fill-opacity="1"><g transform="translate(214.635798, 224.337115)"><g><path d="M 4.0625 -1.25 L 0.78125 -17.609375 C 1.28125 -17.828125 1.769531 -17.9375 2.25 -17.9375 C 2.738281 -17.9375 3.097656 -17.828125 3.328125 -17.609375 C 3.554688 -17.398438 3.710938 -17.015625 3.796875 -16.453125 L 5.4375 -7.625 C 5.8125 -5.4375 6.085938 -3.757812 6.265625 -2.59375 C 6.285156 -2.382812 6.363281 -2.28125 6.5 -2.28125 L 9.328125 -17.390625 C 9.898438 -17.484375 10.515625 -17.53125 11.171875 -17.53125 C 11.835938 -17.53125 12.410156 -17.484375 12.890625 -17.390625 L 15.5 -2.59375 C 15.53125 -2.382812 15.609375 -2.28125 15.734375 -2.28125 C 15.898438 -3.5 16.210938 -5.285156 16.671875 -7.640625 L 18.671875 -17.765625 C 19.015625 -17.828125 19.425781 -17.859375 19.90625 -17.859375 C 20.394531 -17.859375 20.835938 -17.804688 21.234375 -17.703125 L 21.375 -17.53125 L 17.65625 -0.03125 C 16.976562 0.0703125 16.273438 0.125 15.546875 0.125 C 14.816406 0.125 14.3125 0.0351562 14.03125 -0.140625 C 13.757812 -0.328125 13.570312 -0.6875 13.46875 -1.21875 L 12.21875 -8.1875 C 11.78125 -10.738281 11.4375 -12.878906 11.1875 -14.609375 L 11 -14.609375 C 10.65625 -12.429688 10.273438 -10.289062 9.859375 -8.1875 L 8.265625 0 C 7.523438 0.0820312 6.816406 0.125 6.140625 0.125 C 5.460938 0.125 4.972656 0.0351562 4.671875 -0.140625 C 4.367188 -0.328125 4.164062 -0.695312 4.0625 -1.25 Z M 4.0625 -1.25 "/></g></g></g><g fill="#ffffff" fill-opacity="1"><g transform="translate(244.919083, 224.337115)"><g><path d="M 11.15625 -4.3125 L 9.59375 -4.296875 L 6.03125 -4.296875 L 4.53125 -4.3125 L 3.140625 0.03125 C 2.847656 0.09375 2.457031 0.125 1.96875 0.125 C 1.488281 0.125 1.03125 0.0664062 0.59375 -0.046875 L 0.515625 -0.1875 L 6.390625 -17.765625 C 6.753906 -17.828125 7.28125 -17.859375 7.96875 -17.859375 C 8.664062 -17.859375 9.191406 -17.828125 9.546875 -17.765625 L 15.359375 -0.1875 C 14.992188 0.0625 14.523438 0.1875 13.953125 0.1875 C 13.390625 0.1875 12.984375 0.0820312 12.734375 -0.125 C 12.492188 -0.332031 12.285156 -0.71875 12.109375 -1.28125 Z M 5.21875 -6.546875 L 6.546875 -6.578125 L 9.15625 -6.578125 C 9.863281 -6.554688 10.296875 -6.546875 10.453125 -6.546875 L 9.25 -10.328125 C 8.644531 -12.265625 8.1875 -13.832031 7.875 -15.03125 L 7.75 -15.03125 C 7.539062 -14.070312 7.203125 -12.816406 6.734375 -11.265625 Z M 5.21875 -6.546875 "/></g></g></g><g fill="#ffffff" fill-opacity="1"><g transform="translate(268.990241, 224.337115)"><g><path d="M 15.15625 -17.859375 L 15.3125 -17.734375 L 15.3125 -0.03125 C 14.832031 0.0625 14.28125 0.109375 13.65625 0.109375 C 13.03125 0.109375 12.472656 0.0703125 11.984375 0 L 6.453125 -10.890625 C 5.890625 -12.054688 5.34375 -13.265625 4.8125 -14.515625 L 4.703125 -14.484375 C 4.859375 -11.796875 4.9375 -9.671875 4.9375 -8.109375 L 4.9375 0 C 4.519531 0.0703125 4.085938 0.109375 3.640625 0.109375 C 3.191406 0.109375 2.765625 0.0703125 2.359375 0 L 2.359375 -17.734375 C 2.847656 -17.816406 3.398438 -17.859375 4.015625 -17.859375 C 4.628906 -17.859375 5.179688 -17.828125 5.671875 -17.765625 L 11.15625 -6.859375 C 11.394531 -6.335938 11.710938 -5.628906 12.109375 -4.734375 C 12.515625 -3.847656 12.769531 -3.300781 12.875 -3.09375 L 12.96875 -3.125 C 12.832031 -5.34375 12.765625 -7.523438 12.765625 -9.671875 L 12.765625 -16.140625 C 12.765625 -16.765625 12.875 -17.207031 13.09375 -17.46875 C 13.3125 -17.726562 13.695312 -17.859375 14.25 -17.859375 Z M 15.15625 -17.859375 "/></g></g></g><g fill="#ffffff" fill-opacity="1"><g transform="translate(294.854848, 224.337115)"><g><path d="M 2.4375 0 L 2.4375 -17.765625 C 2.789062 -17.828125 3.25 -17.859375 3.8125 -17.859375 C 4.375 -17.859375 4.835938 -17.828125 5.203125 -17.765625 L 5.203125 0 C 4.835938 0.0703125 4.375 0.109375 3.8125 0.109375 C 3.25 0.109375 2.789062 0.0703125 2.4375 0 Z M 2.4375 0 "/></g></g></g><g fill="#ffffff" fill-opacity="1"><g transform="translate(118.096382, 242.087151)"><g><path d="M 9.203125 -0.53125 C 9.390625 -0.507812 9.484375 -0.425781 9.484375 -0.28125 L 9.484375 0 L 6.5 0 L 6.5 -0.28125 C 6.5 -0.425781 6.59375 -0.507812 6.78125 -0.53125 L 7.84375 -0.546875 L 3.984375 -4.484375 C 3.867188 -4.597656 3.753906 -4.675781 3.640625 -4.71875 C 3.535156 -4.757812 3.398438 -4.78125 3.234375 -4.78125 L 2.59375 -4.78125 L 2.59375 -0.5625 L 3.5 -0.53125 C 3.675781 -0.519531 3.765625 -0.4375 3.765625 -0.28125 L 3.765625 0 L 0.703125 0 L 0.703125 -0.28125 C 0.703125 -0.425781 0.796875 -0.507812 0.984375 -0.53125 L 1.875 -0.5625 L 1.875 -9.359375 L 0.984375 -9.390625 C 0.796875 -9.410156 0.703125 -9.492188 0.703125 -9.640625 L 0.703125 -9.90625 L 3.765625 -9.90625 L 3.765625 -9.640625 C 3.765625 -9.484375 3.675781 -9.398438 3.5 -9.390625 L 2.59375 -9.359375 L 2.59375 -5.328125 L 3.171875 -5.328125 C 3.359375 -5.328125 3.5 -5.347656 3.59375 -5.390625 C 3.6875 -5.429688 3.785156 -5.5 3.890625 -5.59375 L 7.5625 -9.359375 L 6.546875 -9.375 C 6.359375 -9.394531 6.265625 -9.476562 6.265625 -9.625 L 6.265625 -9.90625 L 9.1875 -9.90625 L 9.1875 -9.625 C 9.1875 -9.476562 9.09375 -9.394531 8.90625 -9.375 L 8.375 -9.359375 L 4.578125 -5.453125 C 4.503906 -5.367188 4.421875 -5.296875 4.328125 -5.234375 C 4.242188 -5.171875 4.171875 -5.128906 4.109375 -5.109375 C 4.285156 -5.054688 4.457031 -4.941406 4.625 -4.765625 L 8.65625 -0.546875 Z M 9.203125 -0.53125 "/></g></g></g><g fill="#ffffff" fill-opacity="1"><g transform="translate(129.962775, 242.087151)"><g><path d="M 10.34375 -0.53125 C 10.4375 -0.519531 10.503906 -0.492188 10.546875 -0.453125 C 10.585938 -0.421875 10.609375 -0.363281 10.609375 -0.28125 L 10.609375 0 L 7.9375 0 L 7.9375 -0.28125 C 7.9375 -0.363281 7.957031 -0.421875 8 -0.453125 C 8.039062 -0.492188 8.109375 -0.519531 8.203125 -0.53125 L 8.859375 -0.546875 L 7.8125 -3.25 L 3.03125 -3.25 L 1.96875 -0.5625 L 2.671875 -0.53125 C 2.765625 -0.519531 2.832031 -0.492188 2.875 -0.453125 C 2.914062 -0.421875 2.9375 -0.363281 2.9375 -0.28125 L 2.9375 0 L 0.265625 0 L 0.265625 -0.28125 C 0.265625 -0.363281 0.285156 -0.421875 0.328125 -0.453125 C 0.367188 -0.492188 0.4375 -0.519531 0.53125 -0.53125 L 1.203125 -0.5625 L 5.046875 -9.90625 L 5.796875 -9.90625 L 9.625 -0.5625 Z M 7.59375 -3.78125 L 5.640625 -8.59375 L 5.421875 -9.21875 L 5.1875 -8.59375 L 3.25 -3.78125 Z M 7.59375 -3.78125 "/></g></g></g><g fill="#ffffff" fill-opacity="1"><g transform="translate(142.570755, 242.087151)"><g><path d="M 15.09375 -9.640625 C 15.09375 -9.484375 15.003906 -9.398438 14.828125 -9.390625 L 14.34375 -9.359375 L 11.390625 0 L 10.75 0 L 7.828125 -8.59375 C 7.785156 -8.675781 7.753906 -8.796875 7.734375 -8.953125 C 7.703125 -8.796875 7.664062 -8.675781 7.625 -8.59375 L 4.6875 0 L 4.0625 0 L 1.109375 -9.359375 L 0.609375 -9.390625 C 0.429688 -9.410156 0.34375 -9.492188 0.34375 -9.640625 L 0.34375 -9.90625 L 3 -9.90625 L 3 -9.640625 C 3 -9.492188 2.90625 -9.410156 2.71875 -9.390625 L 1.90625 -9.359375 L 4.28125 -1.578125 C 4.3125 -1.472656 4.359375 -1.257812 4.421875 -0.9375 L 4.515625 -1.265625 C 4.554688 -1.453125 4.578125 -1.550781 4.578125 -1.5625 L 7.375 -9.734375 C 7.382812 -9.773438 7.414062 -9.8125 7.46875 -9.84375 C 7.519531 -9.882812 7.578125 -9.90625 7.640625 -9.90625 L 7.84375 -9.90625 C 7.925781 -9.90625 7.984375 -9.890625 8.015625 -9.859375 C 8.046875 -9.835938 8.078125 -9.796875 8.109375 -9.734375 L 10.90625 -1.578125 C 10.957031 -1.398438 11.007812 -1.191406 11.0625 -0.953125 C 11.125 -1.285156 11.171875 -1.492188 11.203125 -1.578125 L 13.578125 -9.359375 L 12.71875 -9.390625 C 12.539062 -9.398438 12.453125 -9.484375 12.453125 -9.640625 L 12.453125 -9.90625 L 15.09375 -9.90625 Z M 15.09375 -9.640625 "/></g></g></g><g fill="#ffffff" fill-opacity="1"><g transform="translate(159.824144, 242.087151)"><g><path d="M 10.34375 -0.53125 C 10.4375 -0.519531 10.503906 -0.492188 10.546875 -0.453125 C 10.585938 -0.421875 10.609375 -0.363281 10.609375 -0.28125 L 10.609375 0 L 7.9375 0 L 7.9375 -0.28125 C 7.9375 -0.363281 7.957031 -0.421875 8 -0.453125 C 8.039062 -0.492188 8.109375 -0.519531 8.203125 -0.53125 L 8.859375 -0.546875 L 7.8125 -3.25 L 3.03125 -3.25 L 1.96875 -0.5625 L 2.671875 -0.53125 C 2.765625 -0.519531 2.832031 -0.492188 2.875 -0.453125 C 2.914062 -0.421875 2.9375 -0.363281 2.9375 -0.28125 L 2.9375 0 L 0.265625 0 L 0.265625 -0.28125 C 0.265625 -0.363281 0.285156 -0.421875 0.328125 -0.453125 C 0.367188 -0.492188 0.4375 -0.519531 0.53125 -0.53125 L 1.203125 -0.5625 L 5.046875 -9.90625 L 5.796875 -9.90625 L 9.625 -0.5625 Z M 7.59375 -3.78125 L 5.640625 -8.59375 L 5.421875 -9.21875 L 5.1875 -8.59375 L 3.25 -3.78125 Z M 7.59375 -3.78125 "/></g></g></g><g fill="#ffffff" fill-opacity="1"><g transform="translate(172.432125, 242.087151)"><g/></g></g><g fill="#ffffff" fill-opacity="1"><g transform="translate(177.624246, 242.087151)"><g><path d="M 7.8125 -6.953125 C 7.8125 -6.347656 7.660156 -5.820312 7.359375 -5.375 C 7.054688 -4.925781 6.632812 -4.582031 6.09375 -4.34375 C 5.5625 -4.101562 4.960938 -3.984375 4.296875 -3.984375 L 2.609375 -3.984375 L 2.609375 -0.5625 L 3.5 -0.53125 C 3.6875 -0.507812 3.78125 -0.425781 3.78125 -0.28125 L 3.78125 0 L 0.703125 0 L 0.703125 -0.28125 C 0.703125 -0.425781 0.796875 -0.507812 0.984375 -0.53125 L 1.890625 -0.5625 L 1.890625 -9.359375 L 0.984375 -9.390625 C 0.796875 -9.410156 0.703125 -9.492188 0.703125 -9.640625 L 0.703125 -9.90625 L 4.296875 -9.90625 C 5.421875 -9.90625 6.285156 -9.660156 6.890625 -9.171875 C 7.503906 -8.679688 7.8125 -7.941406 7.8125 -6.953125 Z M 7.09375 -6.96875 C 7.09375 -7.757812 6.847656 -8.351562 6.359375 -8.75 C 5.867188 -9.15625 5.179688 -9.359375 4.296875 -9.359375 L 2.609375 -9.359375 L 2.609375 -4.5625 L 4.296875 -4.5625 C 5.128906 -4.5625 5.800781 -4.773438 6.3125 -5.203125 C 6.832031 -5.640625 7.09375 -6.226562 7.09375 -6.96875 Z M 7.09375 -6.96875 "/></g></g></g><g fill="#ffffff" fill-opacity="1"><g transform="translate(187.741618, 242.087151)"><g><path d="M 8.6875 -0.53125 C 8.863281 -0.519531 8.953125 -0.4375 8.953125 -0.28125 L 8.953125 0 L 7.984375 0 C 7.898438 0 7.832031 -0.015625 7.78125 -0.046875 C 7.726562 -0.078125 7.675781 -0.125 7.625 -0.1875 L 4.453125 -4.203125 C 4.347656 -4.316406 4.253906 -4.390625 4.171875 -4.421875 C 4.085938 -4.460938 3.957031 -4.484375 3.78125 -4.484375 L 2.609375 -4.484375 L 2.609375 -0.5625 L 3.5 -0.53125 C 3.6875 -0.507812 3.78125 -0.425781 3.78125 -0.28125 L 3.78125 0 L 0.703125 0 L 0.703125 -0.28125 C 0.703125 -0.425781 0.796875 -0.507812 0.984375 -0.53125 L 1.890625 -0.5625 L 1.890625 -9.359375 L 0.984375 -9.390625 C 0.804688 -9.398438 0.71875 -9.484375 0.71875 -9.640625 L 0.71875 -9.90625 L 4.296875 -9.90625 C 5.367188 -9.90625 6.203125 -9.695312 6.796875 -9.28125 C 7.398438 -8.875 7.703125 -8.21875 7.703125 -7.3125 C 7.703125 -6.539062 7.4375 -5.90625 6.90625 -5.40625 C 6.382812 -4.914062 5.710938 -4.632812 4.890625 -4.5625 C 5.003906 -4.488281 5.101562 -4.394531 5.1875 -4.28125 L 8.15625 -0.546875 Z M 4.203125 -5.015625 C 5.046875 -5.015625 5.722656 -5.207031 6.234375 -5.59375 C 6.742188 -5.988281 7 -6.539062 7 -7.25 C 7 -8.65625 6.097656 -9.359375 4.296875 -9.359375 L 2.609375 -9.359375 L 2.609375 -5.015625 Z M 4.203125 -5.015625 "/></g></g></g><g fill="#ffffff" fill-opacity="1"><g transform="translate(199.020348, 242.087151)"><g><path d="M 7.828125 -7.875 L 7.46875 -7.875 C 7.289062 -7.875 7.195312 -7.984375 7.1875 -8.203125 L 7.125 -9.328125 L 2.609375 -9.328125 L 2.609375 -5.3125 L 6.546875 -5.3125 L 6.546875 -4.734375 L 2.609375 -4.734375 L 2.609375 -0.609375 L 7.125 -0.609375 L 7.1875 -1.703125 C 7.195312 -1.941406 7.289062 -2.0625 7.46875 -2.0625 L 7.828125 -2.0625 L 7.828125 0 L 0.71875 0 L 0.71875 -0.28125 C 0.71875 -0.4375 0.804688 -0.519531 0.984375 -0.53125 L 1.890625 -0.5625 L 1.890625 -9.359375 L 0.984375 -9.390625 C 0.796875 -9.410156 0.703125 -9.492188 0.703125 -9.640625 L 0.703125 -9.90625 L 7.828125 -9.90625 Z M 7.828125 -7.875 "/></g></g></g><g fill="#ffffff" fill-opacity="1"><g transform="translate(209.543493, 242.087151)"><g><path d="M 11.671875 -0.5625 L 12.578125 -0.53125 C 12.765625 -0.507812 12.859375 -0.425781 12.859375 -0.28125 L 12.859375 0 L 9.828125 0 L 9.828125 -0.28125 C 9.828125 -0.425781 9.921875 -0.507812 10.109375 -0.53125 L 11.046875 -0.5625 L 11.046875 -8.453125 C 11.046875 -8.617188 11.050781 -8.75 11.0625 -8.84375 L 7.171875 -1.90625 C 7.097656 -1.78125 7.003906 -1.71875 6.890625 -1.71875 L 6.78125 -1.71875 C 6.65625 -1.71875 6.5625 -1.78125 6.5 -1.90625 L 2.484375 -8.84375 C 2.492188 -8.75 2.5 -8.617188 2.5 -8.453125 L 2.5 -0.5625 L 3.4375 -0.53125 C 3.625 -0.507812 3.71875 -0.425781 3.71875 -0.28125 L 3.71875 0 L 0.703125 0 L 0.703125 -0.28125 C 0.703125 -0.425781 0.796875 -0.507812 0.984375 -0.53125 L 1.890625 -0.5625 L 1.890625 -9.359375 L 0.984375 -9.390625 C 0.796875 -9.410156 0.703125 -9.492188 0.703125 -9.640625 L 0.703125 -9.90625 L 2.375 -9.90625 C 2.457031 -9.90625 2.515625 -9.898438 2.546875 -9.890625 C 2.578125 -9.878906 2.609375 -9.84375 2.640625 -9.78125 L 6.65625 -2.890625 C 6.707031 -2.785156 6.765625 -2.644531 6.828125 -2.46875 L 7.015625 -2.890625 L 10.90625 -9.78125 C 10.945312 -9.84375 10.984375 -9.878906 11.015625 -9.890625 C 11.046875 -9.898438 11.097656 -9.90625 11.171875 -9.90625 L 12.859375 -9.90625 L 12.859375 -9.640625 C 12.859375 -9.492188 12.765625 -9.410156 12.578125 -9.390625 L 11.671875 -9.359375 Z M 11.671875 -0.5625 "/></g></g></g><g fill="#ffffff" fill-opacity="1"><g transform="translate(224.851967, 242.087151)"><g><path d="M 2.609375 -0.5625 L 3.515625 -0.53125 C 3.691406 -0.519531 3.78125 -0.4375 3.78125 -0.28125 L 3.78125 0 L 0.703125 0 L 0.703125 -0.28125 C 0.703125 -0.425781 0.796875 -0.507812 0.984375 -0.53125 L 1.890625 -0.5625 L 1.890625 -9.359375 L 0.984375 -9.375 C 0.796875 -9.394531 0.703125 -9.476562 0.703125 -9.625 L 0.703125 -9.90625 L 3.78125 -9.90625 L 3.78125 -9.625 C 3.78125 -9.46875 3.691406 -9.382812 3.515625 -9.375 L 2.609375 -9.359375 Z M 2.609375 -0.5625 "/></g></g></g><g fill="#ffffff" fill-opacity="1"><g transform="translate(231.093494, 242.087151)"><g><path d="M 10.1875 -9.640625 C 10.1875 -9.492188 10.09375 -9.410156 9.90625 -9.390625 L 9.015625 -9.359375 L 9.015625 -3.78125 C 9.015625 -3.03125 8.859375 -2.359375 8.546875 -1.765625 C 8.234375 -1.179688 7.796875 -0.722656 7.234375 -0.390625 C 6.671875 -0.0546875 6.015625 0.109375 5.265625 0.109375 C 4.503906 0.109375 3.84375 -0.0546875 3.28125 -0.390625 C 2.71875 -0.722656 2.28125 -1.179688 1.96875 -1.765625 C 1.664062 -2.359375 1.515625 -3.03125 1.515625 -3.78125 L 1.515625 -9.359375 L 0.609375 -9.390625 C 0.429688 -9.398438 0.34375 -9.484375 0.34375 -9.640625 L 0.34375 -9.90625 L 3.578125 -9.90625 L 3.578125 -9.640625 C 3.578125 -9.492188 3.484375 -9.410156 3.296875 -9.390625 L 2.21875 -9.359375 L 2.21875 -3.78125 C 2.21875 -3.15625 2.34375 -2.59375 2.59375 -2.09375 C 2.84375 -1.601562 3.195312 -1.210938 3.65625 -0.921875 C 4.113281 -0.640625 4.648438 -0.5 5.265625 -0.5 C 5.878906 -0.5 6.414062 -0.640625 6.875 -0.921875 C 7.332031 -1.210938 7.679688 -1.609375 7.921875 -2.109375 C 8.171875 -2.609375 8.296875 -3.164062 8.296875 -3.78125 L 8.296875 -9.359375 L 7.21875 -9.390625 C 7.03125 -9.410156 6.9375 -9.492188 6.9375 -9.640625 L 6.9375 -9.90625 L 10.1875 -9.90625 Z M 10.1875 -9.640625 "/></g></g></g><g fill="#ffffff" fill-opacity="1"><g transform="translate(243.42163, 242.087151)"><g><path d="M 11.671875 -0.5625 L 12.578125 -0.53125 C 12.765625 -0.507812 12.859375 -0.425781 12.859375 -0.28125 L 12.859375 0 L 9.828125 0 L 9.828125 -0.28125 C 9.828125 -0.425781 9.921875 -0.507812 10.109375 -0.53125 L 11.046875 -0.5625 L 11.046875 -8.453125 C 11.046875 -8.617188 11.050781 -8.75 11.0625 -8.84375 L 7.171875 -1.90625 C 7.097656 -1.78125 7.003906 -1.71875 6.890625 -1.71875 L 6.78125 -1.71875 C 6.65625 -1.71875 6.5625 -1.78125 6.5 -1.90625 L 2.484375 -8.84375 C 2.492188 -8.75 2.5 -8.617188 2.5 -8.453125 L 2.5 -0.5625 L 3.4375 -0.53125 C 3.625 -0.507812 3.71875 -0.425781 3.71875 -0.28125 L 3.71875 0 L 0.703125 0 L 0.703125 -0.28125 C 0.703125 -0.425781 0.796875 -0.507812 0.984375 -0.53125 L 1.890625 -0.5625 L 1.890625 -9.359375 L 0.984375 -9.390625 C 0.796875 -9.410156 0.703125 -9.492188 0.703125 -9.640625 L 0.703125 -9.90625 L 2.375 -9.90625 C 2.457031 -9.90625 2.515625 -9.898438 2.546875 -9.890625 C 2.578125 -9.878906 2.609375 -9.84375 2.640625 -9.78125 L 6.65625 -2.890625 C 6.707031 -2.785156 6.765625 -2.644531 6.828125 -2.46875 L 7.015625 -2.890625 L 10.90625 -9.78125 C 10.945312 -9.84375 10.984375 -9.878906 11.015625 -9.890625 C 11.046875 -9.898438 11.097656 -9.90625 11.171875 -9.90625 L 12.859375 -9.90625 L 12.859375 -9.640625 C 12.859375 -9.492188 12.765625 -9.410156 12.578125 -9.390625 L 11.671875 -9.359375 Z M 11.671875 -0.5625 "/></g></g></g></svg>