<svg xmlns="http://www.w3.org/2000/svg" xmlns:xlink="http://www.w3.org/1999/xlink" width="500" zoomAndPan="magnify" viewBox="0 0 375 187.499995" height="250" preserveAspectRatio="xMidYMid meet" version="1.0"><defs><g/><clipPath id="e39ba98d38"><path d="M 146 29.621094 L 225 29.621094 L 225 34 L 146 34 Z M 146 29.621094 " clip-rule="nonzero"/></clipPath><clipPath id="70e2f558ee"><path d="M 124.074219 68 L 251 68 L 251 98 L 124.074219 98 Z M 124.074219 68 " clip-rule="nonzero"/></clipPath><clipPath id="0acc289961"><path d="M 133 90 L 229 90 L 229 101.429688 L 133 101.429688 Z M 133 90 " clip-rule="nonzero"/></clipPath></defs><path fill="#ffffff" d="M 144.839844 34.519531 C 170.230469 36.910156 196.097656 38.699219 221.484375 35.355469 L 226.515625 34.519531 C 213.222656 37.746094 199.332031 38.34375 185.679688 38.222656 C 172.027344 37.863281 158.371094 36.667969 144.839844 34.519531 Z M 144.839844 34.519531 " fill-opacity="1" fill-rule="nonzero"/><g clip-path="url(#e39ba98d38)"><path fill="#ffffff" d="M 146.398438 33.085938 C 170.589844 28.546875 195.738281 28.546875 220.167969 32.25 L 224.960938 33.085938 C 198.851562 30.097656 172.503906 29.859375 146.398438 33.085938 Z M 146.398438 33.085938 " fill-opacity="1" fill-rule="nonzero"/></g><path fill="#ffffff" d="M 226.515625 42.523438 C 232.382812 40.851562 242.085938 40.492188 243.402344 48.140625 C 244 52.082031 242.921875 56.382812 240.765625 59.730469 C 236.457031 66.539062 229.871094 71.4375 222.5625 74.425781 L 218.851562 75.742188 L 215.019531 76.816406 C 220.050781 75.261719 224.71875 72.992188 229.03125 70.125 C 234.179688 66.539062 239.089844 61.761719 241.484375 55.90625 C 245.796875 43.480469 237.175781 40.613281 226.515625 42.523438 Z M 226.515625 42.523438 " fill-opacity="1" fill-rule="nonzero"/><path fill="#ffffff" d="M 144.839844 36.074219 C 147.59375 51.964844 151.308594 68.691406 161.246094 81.832031 C 162.683594 83.625 164.359375 85.417969 166.15625 86.851562 C 151.546875 76.457031 146.15625 53.039062 144.839844 36.074219 Z M 144.839844 36.074219 " fill-opacity="1" fill-rule="nonzero"/><path fill="#ffffff" d="M 226.515625 36.074219 C 225.675781 54.710938 220.167969 74.902344 206.277344 88.046875 C 207.714844 86.136719 209.390625 84.460938 210.707031 82.429688 C 220.167969 68.929688 224.359375 52.320312 226.515625 36.074219 Z M 226.515625 36.074219 " fill-opacity="1" fill-rule="nonzero"/><path fill="#ffffff" d="M 166.039062 89.003906 C 177.292969 91.390625 189.03125 93.066406 200.289062 90.4375 C 201.964844 90.199219 203.402344 89.480469 205.078125 89.003906 C 193.101562 95.097656 178.371094 93.183594 166.039062 89.003906 Z M 166.039062 89.003906 " fill-opacity="1" fill-rule="nonzero"/><g clip-path="url(#70e2f558ee)"><path fill="#ffffff" d="M 188.671875 97.964844 C 182.5625 97.964844 178.613281 97.726562 178.371094 97.726562 C 125.4375 97.007812 124.359375 83.507812 124.359375 82.910156 C 125.320312 70.722656 152.746094 70.125 153.820312 70.003906 L 153.820312 71.199219 C 153.582031 71.199219 126.277344 71.917969 125.4375 82.910156 C 125.4375 82.910156 126.875 95.8125 178.371094 96.53125 C 178.851562 96.53125 225.796875 99.875 248.433594 83.507812 C 248.792969 83.148438 250.585938 80.640625 249.390625 77.890625 C 247.832031 74.425781 241.246094 70.125 218.730469 69.527344 L 218.730469 68.332031 C 237.292969 68.808594 247.953125 71.917969 250.46875 77.414062 C 252.023438 80.996094 249.511719 84.105469 249.390625 84.222656 L 249.269531 84.34375 C 232.863281 96.171875 204 97.964844 188.671875 97.964844 Z M 188.671875 97.964844 " fill-opacity="1" fill-rule="nonzero"/></g><g clip-path="url(#0acc289961)"><path fill="#ffffff" d="M 183.640625 101.429688 C 180.050781 101.429688 178.011719 101.191406 178.011719 101.191406 C 156.457031 101.191406 133.703125 91.152344 133.582031 91.035156 L 133.941406 90.078125 C 134.179688 90.199219 156.695312 100.113281 178.011719 100.113281 C 178.253906 100.113281 199.808594 102.144531 227.953125 92.46875 L 228.3125 93.542969 C 208.433594 100.472656 191.90625 101.429688 183.640625 101.429688 Z M 183.640625 101.429688 " fill-opacity="1" fill-rule="nonzero"/></g><g fill="#ffffff" fill-opacity="1"><g transform="translate(63.368863, 133.265609)"><g><path d="M 1.734375 -3.171875 L 8.8125 -13.8125 C 9 -14.09375 9.738281 -15.082031 11.03125 -16.78125 L 10.9375 -16.859375 C 10.113281 -16.710938 8.65625 -16.640625 6.5625 -16.640625 L 2.046875 -16.640625 C 1.972656 -16.941406 1.9375 -17.300781 1.9375 -17.71875 C 1.9375 -18.144531 2.007812 -18.628906 2.15625 -19.171875 L 13.71875 -19.171875 C 14 -18.210938 14.140625 -17.550781 14.140625 -17.1875 C 14.140625 -16.820312 14.007812 -16.441406 13.75 -16.046875 L 6.703125 -5.5 C 6.273438 -4.84375 5.546875 -3.84375 4.515625 -2.5 L 4.609375 -2.40625 C 5.785156 -2.519531 6.90625 -2.578125 7.96875 -2.578125 L 10.890625 -2.578125 C 12.390625 -2.578125 13.492188 -2.753906 14.203125 -3.109375 C 14.367188 -2.609375 14.453125 -2.125 14.453125 -1.65625 C 14.453125 -0.550781 13.757812 0 12.375 0 L 1.71875 0 C 1.46875 -0.9375 1.34375 -1.597656 1.34375 -1.984375 C 1.34375 -2.378906 1.472656 -2.773438 1.734375 -3.171875 Z M 1.734375 -3.171875 "/></g></g></g><g fill="#ffffff" fill-opacity="1"><g transform="translate(87.975737, 133.265609)"><g><path d="M 12.03125 -4.65625 L 10.359375 -4.625 L 6.515625 -4.625 L 4.890625 -4.65625 L 3.390625 0.03125 C 3.078125 0.101562 2.65625 0.140625 2.125 0.140625 C 1.601562 0.140625 1.109375 0.0703125 0.640625 -0.0625 L 0.5625 -0.203125 L 6.90625 -19.171875 C 7.300781 -19.242188 7.867188 -19.28125 8.609375 -19.28125 C 9.359375 -19.28125 9.921875 -19.242188 10.296875 -19.171875 L 16.578125 -0.203125 C 16.191406 0.0664062 15.6875 0.203125 15.0625 0.203125 C 14.445312 0.203125 14.007812 0.0859375 13.75 -0.140625 C 13.488281 -0.367188 13.265625 -0.78125 13.078125 -1.375 Z M 5.640625 -7.078125 L 7.078125 -7.09375 L 9.875 -7.09375 C 10.644531 -7.082031 11.113281 -7.078125 11.28125 -7.078125 L 9.984375 -11.140625 C 9.335938 -13.234375 8.84375 -14.925781 8.5 -16.21875 L 8.359375 -16.21875 C 8.140625 -15.1875 7.773438 -13.832031 7.265625 -12.15625 Z M 5.640625 -7.078125 "/></g></g></g><g fill="#ffffff" fill-opacity="1"><g transform="translate(113.957304, 133.265609)"><g><path d="M 5.5 -16.640625 L 5.53125 -13.328125 L 5.53125 -10.859375 C 5.8125 -10.878906 6.203125 -10.890625 6.703125 -10.890625 L 12.34375 -10.890625 C 12.4375 -10.566406 12.484375 -10.148438 12.484375 -9.640625 C 12.484375 -9.128906 12.4375 -8.710938 12.34375 -8.390625 L 5.53125 -8.390625 L 5.53125 0 C 5.101562 0.0703125 4.597656 0.109375 4.015625 0.109375 C 3.429688 0.109375 2.941406 0.0703125 2.546875 0 L 2.546875 -19 L 2.71875 -19.171875 L 13.828125 -19.171875 C 13.941406 -18.828125 14 -18.429688 14 -17.984375 C 14 -17.066406 13.4375 -16.609375 12.3125 -16.609375 L 8.1875 -16.609375 C 6.914062 -16.609375 6.019531 -16.617188 5.5 -16.640625 Z M 5.5 -16.640625 "/></g></g></g><g fill="#ffffff" fill-opacity="1"><g transform="translate(137.441966, 133.265609)"><g><path d="M 16.46875 -19.171875 L 16.46875 -6.734375 C 16.46875 -4.453125 15.832031 -2.695312 14.5625 -1.46875 C 13.289062 -0.25 11.5625 0.359375 9.375 0.359375 C 7.207031 0.359375 5.484375 -0.242188 4.203125 -1.453125 C 2.929688 -2.671875 2.296875 -4.429688 2.296875 -6.734375 L 2.296875 -19.109375 L 2.46875 -19.28125 L 3.625 -19.28125 C 4.21875 -19.28125 4.640625 -19.128906 4.890625 -18.828125 C 5.148438 -18.523438 5.28125 -18.039062 5.28125 -17.375 L 5.28125 -6.734375 C 5.28125 -5.203125 5.625 -4.035156 6.3125 -3.234375 C 7.007812 -2.441406 8.03125 -2.046875 9.375 -2.046875 C 12.101562 -2.046875 13.46875 -3.609375 13.46875 -6.734375 L 13.46875 -19.171875 C 13.675781 -19.203125 13.910156 -19.226562 14.171875 -19.25 C 14.429688 -19.269531 14.691406 -19.28125 14.953125 -19.28125 C 15.234375 -19.28125 15.503906 -19.269531 15.765625 -19.25 C 16.023438 -19.226562 16.257812 -19.203125 16.46875 -19.171875 Z M 16.46875 -19.171875 "/></g></g></g><g fill="#ffffff" fill-opacity="1"><g transform="translate(165.050734, 133.265609)"><g><path d="M 0.84375 -1.734375 C 0.914062 -2.648438 1.335938 -3.421875 2.109375 -4.046875 C 4.046875 -2.765625 5.925781 -2.125 7.75 -2.125 C 8.851562 -2.125 9.726562 -2.367188 10.375 -2.859375 C 11.019531 -3.347656 11.34375 -3.984375 11.34375 -4.765625 C 11.34375 -6.054688 10.488281 -7.066406 8.78125 -7.796875 L 5.46875 -9.234375 C 2.90625 -10.335938 1.625 -11.957031 1.625 -14.09375 C 1.625 -14.851562 1.78125 -15.566406 2.09375 -16.234375 C 2.414062 -16.898438 2.859375 -17.484375 3.421875 -17.984375 C 3.984375 -18.492188 4.660156 -18.878906 5.453125 -19.140625 C 6.253906 -19.398438 7.128906 -19.53125 8.078125 -19.53125 C 10.046875 -19.53125 11.992188 -19.046875 13.921875 -18.078125 C 13.898438 -17.171875 13.535156 -16.394531 12.828125 -15.75 C 11.023438 -16.625 9.425781 -17.0625 8.03125 -17.0625 C 7.019531 -17.0625 6.203125 -16.8125 5.578125 -16.3125 C 4.960938 -15.820312 4.65625 -15.238281 4.65625 -14.5625 C 4.65625 -13.875 4.847656 -13.335938 5.234375 -12.953125 C 5.617188 -12.566406 6.203125 -12.21875 6.984375 -11.90625 L 10.25 -10.5 C 11.644531 -9.894531 12.691406 -9.164062 13.390625 -8.3125 C 14.097656 -7.46875 14.453125 -6.457031 14.453125 -5.28125 C 14.453125 -3.59375 13.863281 -2.226562 12.6875 -1.1875 C 11.519531 -0.15625 9.75 0.359375 7.375 0.359375 C 5 0.359375 2.820312 -0.335938 0.84375 -1.734375 Z M 0.84375 -1.734375 "/></g></g></g><g fill="#ffffff" fill-opacity="1"><g transform="translate(189.489276, 133.265609)"><g><path d="M 5.390625 -14.625 C 5.066406 -13.832031 4.835938 -13.035156 4.703125 -12.234375 C 4.578125 -11.429688 4.515625 -10.597656 4.515625 -9.734375 C 4.515625 -8.785156 4.578125 -7.847656 4.703125 -6.921875 C 4.835938 -5.992188 5.082031 -5.164062 5.4375 -4.4375 C 5.800781 -3.707031 6.289062 -3.117188 6.90625 -2.671875 C 7.519531 -2.234375 8.304688 -2.015625 9.265625 -2.015625 C 10.285156 -2.015625 11.097656 -2.269531 11.703125 -2.78125 C 12.316406 -3.300781 12.785156 -3.941406 13.109375 -4.703125 C 13.441406 -5.472656 13.660156 -6.296875 13.765625 -7.171875 C 13.867188 -8.054688 13.921875 -8.863281 13.921875 -9.59375 C 13.921875 -10.34375 13.867188 -11.15625 13.765625 -12.03125 C 13.660156 -12.914062 13.445312 -13.734375 13.125 -14.484375 C 12.8125 -15.242188 12.34375 -15.875 11.71875 -16.375 C 11.09375 -16.882812 10.265625 -17.140625 9.234375 -17.140625 C 8.273438 -17.140625 7.472656 -16.914062 6.828125 -16.46875 C 6.179688 -16.019531 5.703125 -15.40625 5.390625 -14.625 Z M 4.375 -1.3125 C 2.375 -3.039062 1.375 -5.789062 1.375 -9.5625 C 1.375 -11.101562 1.546875 -12.484375 1.890625 -13.703125 C 2.234375 -14.929688 2.738281 -15.972656 3.40625 -16.828125 C 4.070312 -17.691406 4.890625 -18.359375 5.859375 -18.828125 C 6.835938 -19.296875 7.960938 -19.53125 9.234375 -19.53125 C 10.484375 -19.53125 11.597656 -19.300781 12.578125 -18.84375 C 13.566406 -18.382812 14.390625 -17.722656 15.046875 -16.859375 C 15.703125 -16.003906 16.203125 -14.957031 16.546875 -13.71875 C 16.890625 -12.488281 17.0625 -11.101562 17.0625 -9.5625 C 17.0625 -8.03125 16.890625 -6.648438 16.546875 -5.421875 C 16.203125 -4.203125 15.703125 -3.160156 15.046875 -2.296875 C 14.390625 -1.441406 13.566406 -0.785156 12.578125 -0.328125 C 11.597656 0.128906 10.484375 0.359375 9.234375 0.359375 C 7.253906 0.359375 5.632812 -0.195312 4.375 -1.3125 Z M 4.375 -1.3125 "/></g></g></g><g fill="#ffffff" fill-opacity="1"><g transform="translate(216.789438, 133.265609)"><g><path d="M 4.375 -1.34375 L 0.84375 -19 C 1.382812 -19.238281 1.914062 -19.359375 2.4375 -19.359375 C 2.96875 -19.359375 3.351562 -19.238281 3.59375 -19 C 3.832031 -18.769531 4 -18.359375 4.09375 -17.765625 L 5.859375 -8.21875 C 6.273438 -5.863281 6.578125 -4.0625 6.765625 -2.8125 C 6.785156 -2.582031 6.867188 -2.46875 7.015625 -2.46875 L 10.078125 -18.78125 C 10.691406 -18.875 11.351562 -18.921875 12.0625 -18.921875 C 12.78125 -18.921875 13.398438 -18.875 13.921875 -18.78125 L 16.71875 -2.8125 C 16.757812 -2.582031 16.847656 -2.46875 16.984375 -2.46875 C 17.171875 -3.78125 17.503906 -5.707031 17.984375 -8.25 L 20.15625 -19.171875 C 20.519531 -19.242188 20.960938 -19.28125 21.484375 -19.28125 C 22.015625 -19.28125 22.492188 -19.222656 22.921875 -19.109375 L 23.0625 -18.921875 L 19.046875 -0.03125 C 18.316406 0.0820312 17.5625 0.140625 16.78125 0.140625 C 16 0.140625 15.457031 0.0390625 15.15625 -0.15625 C 14.851562 -0.351562 14.644531 -0.738281 14.53125 -1.3125 L 13.1875 -8.84375 C 12.71875 -11.59375 12.34375 -13.898438 12.0625 -15.765625 L 11.875 -15.765625 C 11.5 -13.410156 11.085938 -11.101562 10.640625 -8.84375 L 8.921875 0 C 8.117188 0.09375 7.351562 0.140625 6.625 0.140625 C 5.894531 0.140625 5.363281 0.0390625 5.03125 -0.15625 C 4.707031 -0.351562 4.488281 -0.75 4.375 -1.34375 Z M 4.375 -1.34375 "/></g></g></g><g fill="#ffffff" fill-opacity="1"><g transform="translate(249.476166, 133.265609)"><g><path d="M 12.03125 -4.65625 L 10.359375 -4.625 L 6.515625 -4.625 L 4.890625 -4.65625 L 3.390625 0.03125 C 3.078125 0.101562 2.65625 0.140625 2.125 0.140625 C 1.601562 0.140625 1.109375 0.0703125 0.640625 -0.0625 L 0.5625 -0.203125 L 6.90625 -19.171875 C 7.300781 -19.242188 7.867188 -19.28125 8.609375 -19.28125 C 9.359375 -19.28125 9.921875 -19.242188 10.296875 -19.171875 L 16.578125 -0.203125 C 16.191406 0.0664062 15.6875 0.203125 15.0625 0.203125 C 14.445312 0.203125 14.007812 0.0859375 13.75 -0.140625 C 13.488281 -0.367188 13.265625 -0.78125 13.078125 -1.375 Z M 5.640625 -7.078125 L 7.078125 -7.09375 L 9.875 -7.09375 C 10.644531 -7.082031 11.113281 -7.078125 11.28125 -7.078125 L 9.984375 -11.140625 C 9.335938 -13.234375 8.84375 -14.925781 8.5 -16.21875 L 8.359375 -16.21875 C 8.140625 -15.1875 7.773438 -13.832031 7.265625 -12.15625 Z M 5.640625 -7.078125 "/></g></g></g><g fill="#ffffff" fill-opacity="1"><g transform="translate(275.457739, 133.265609)"><g><path d="M 16.359375 -19.28125 L 16.53125 -19.140625 L 16.53125 -0.03125 C 16.007812 0.0625 15.410156 0.109375 14.734375 0.109375 C 14.054688 0.109375 13.457031 0.0703125 12.9375 0 L 6.953125 -11.765625 C 6.359375 -13.015625 5.769531 -14.3125 5.1875 -15.65625 L 5.078125 -15.625 C 5.242188 -12.726562 5.328125 -10.4375 5.328125 -8.75 L 5.328125 0 C 4.878906 0.0703125 4.410156 0.109375 3.921875 0.109375 C 3.441406 0.109375 2.984375 0.0703125 2.546875 0 L 2.546875 -19.140625 C 3.078125 -19.234375 3.671875 -19.28125 4.328125 -19.28125 C 4.992188 -19.28125 5.59375 -19.242188 6.125 -19.171875 L 12.03125 -7.40625 C 12.300781 -6.84375 12.648438 -6.078125 13.078125 -5.109375 C 13.503906 -4.148438 13.773438 -3.5625 13.890625 -3.34375 L 14 -3.375 C 13.851562 -5.757812 13.78125 -8.113281 13.78125 -10.4375 L 13.78125 -17.421875 C 13.78125 -18.097656 13.894531 -18.578125 14.125 -18.859375 C 14.363281 -19.140625 14.78125 -19.28125 15.375 -19.28125 Z M 16.359375 -19.28125 "/></g></g></g><g fill="#ffffff" fill-opacity="1"><g transform="translate(303.375099, 133.265609)"><g><path d="M 2.640625 0 L 2.640625 -19.171875 C 3.015625 -19.242188 3.503906 -19.28125 4.109375 -19.28125 C 4.710938 -19.28125 5.210938 -19.242188 5.609375 -19.171875 L 5.609375 0 C 5.210938 0.0703125 4.710938 0.109375 4.109375 0.109375 C 3.503906 0.109375 3.015625 0.0703125 2.640625 0 Z M 2.640625 0 "/></g></g></g><g fill="#ffffff" fill-opacity="1"><g transform="translate(112.588139, 152.424376)"><g><path d="M 9.921875 -0.578125 C 10.128906 -0.554688 10.234375 -0.460938 10.234375 -0.296875 L 10.234375 0 L 7.015625 0 L 7.015625 -0.296875 C 7.015625 -0.460938 7.113281 -0.554688 7.3125 -0.578125 L 8.46875 -0.59375 L 4.3125 -4.828125 C 4.175781 -4.960938 4.050781 -5.050781 3.9375 -5.09375 C 3.820312 -5.132812 3.671875 -5.15625 3.484375 -5.15625 L 2.796875 -5.15625 L 2.796875 -0.609375 L 3.78125 -0.578125 C 3.96875 -0.566406 4.0625 -0.472656 4.0625 -0.296875 L 4.0625 0 L 0.75 0 L 0.75 -0.296875 C 0.75 -0.460938 0.851562 -0.554688 1.0625 -0.578125 L 2.03125 -0.609375 L 2.03125 -10.109375 L 1.0625 -10.140625 C 0.851562 -10.160156 0.75 -10.25 0.75 -10.40625 L 0.75 -10.703125 L 4.0625 -10.703125 L 4.0625 -10.40625 C 4.0625 -10.238281 3.96875 -10.148438 3.78125 -10.140625 L 2.796875 -10.109375 L 2.796875 -5.75 L 3.4375 -5.75 C 3.632812 -5.75 3.78125 -5.769531 3.875 -5.8125 C 3.976562 -5.851562 4.085938 -5.929688 4.203125 -6.046875 L 8.15625 -10.109375 L 7.078125 -10.125 C 6.867188 -10.144531 6.765625 -10.234375 6.765625 -10.390625 L 6.765625 -10.703125 L 9.90625 -10.703125 L 9.90625 -10.390625 C 9.90625 -10.234375 9.804688 -10.144531 9.609375 -10.125 L 9.03125 -10.109375 L 4.9375 -5.890625 C 4.851562 -5.796875 4.765625 -5.710938 4.671875 -5.640625 C 4.578125 -5.578125 4.5 -5.535156 4.4375 -5.515625 C 4.632812 -5.453125 4.816406 -5.328125 4.984375 -5.140625 L 9.34375 -0.59375 Z M 9.921875 -0.578125 "/></g></g></g><g fill="#ffffff" fill-opacity="1"><g transform="translate(125.396313, 152.424376)"><g><path d="M 11.171875 -0.578125 C 11.265625 -0.566406 11.332031 -0.539062 11.375 -0.5 C 11.425781 -0.457031 11.453125 -0.390625 11.453125 -0.296875 L 11.453125 0 L 8.5625 0 L 8.5625 -0.296875 C 8.5625 -0.390625 8.582031 -0.457031 8.625 -0.5 C 8.675781 -0.539062 8.753906 -0.566406 8.859375 -0.578125 L 9.5625 -0.59375 L 8.4375 -3.5 L 3.265625 -3.5 L 2.125 -0.609375 L 2.890625 -0.578125 C 2.984375 -0.566406 3.050781 -0.539062 3.09375 -0.5 C 3.144531 -0.457031 3.171875 -0.390625 3.171875 -0.296875 L 3.171875 0 L 0.28125 0 L 0.28125 -0.296875 C 0.28125 -0.390625 0.300781 -0.457031 0.34375 -0.5 C 0.394531 -0.539062 0.472656 -0.566406 0.578125 -0.578125 L 1.296875 -0.609375 L 5.4375 -10.703125 L 6.25 -10.703125 L 10.390625 -0.609375 Z M 8.1875 -4.078125 L 6.09375 -9.28125 L 5.84375 -9.953125 L 5.609375 -9.28125 L 3.5 -4.078125 Z M 8.1875 -4.078125 "/></g></g></g><g fill="#ffffff" fill-opacity="1"><g transform="translate(139.00493, 152.424376)"><g><path d="M 16.28125 -10.40625 C 16.28125 -10.238281 16.1875 -10.148438 16 -10.140625 L 15.46875 -10.109375 L 12.296875 0 L 11.609375 0 L 8.453125 -9.28125 C 8.410156 -9.363281 8.375 -9.488281 8.34375 -9.65625 C 8.3125 -9.488281 8.273438 -9.363281 8.234375 -9.28125 L 5.0625 0 L 4.375 0 L 1.1875 -10.109375 L 0.671875 -10.140625 C 0.460938 -10.160156 0.359375 -10.25 0.359375 -10.40625 L 0.359375 -10.703125 L 3.234375 -10.703125 L 3.234375 -10.40625 C 3.234375 -10.25 3.132812 -10.160156 2.9375 -10.140625 L 2.0625 -10.109375 L 4.625 -1.703125 C 4.65625 -1.597656 4.707031 -1.367188 4.78125 -1.015625 L 4.859375 -1.359375 C 4.910156 -1.566406 4.9375 -1.675781 4.9375 -1.6875 L 7.96875 -10.5 C 7.976562 -10.550781 8.007812 -10.597656 8.0625 -10.640625 C 8.113281 -10.679688 8.175781 -10.703125 8.25 -10.703125 L 8.46875 -10.703125 C 8.550781 -10.703125 8.609375 -10.6875 8.640625 -10.65625 C 8.679688 -10.625 8.71875 -10.570312 8.75 -10.5 L 11.765625 -1.703125 C 11.828125 -1.515625 11.882812 -1.289062 11.9375 -1.03125 C 12.007812 -1.394531 12.0625 -1.617188 12.09375 -1.703125 L 14.65625 -10.109375 L 13.71875 -10.140625 C 13.53125 -10.148438 13.4375 -10.238281 13.4375 -10.40625 L 13.4375 -10.703125 L 16.28125 -10.703125 Z M 16.28125 -10.40625 "/></g></g></g><g fill="#ffffff" fill-opacity="1"><g transform="translate(157.62764, 152.424376)"><g><path d="M 11.171875 -0.578125 C 11.265625 -0.566406 11.332031 -0.539062 11.375 -0.5 C 11.425781 -0.457031 11.453125 -0.390625 11.453125 -0.296875 L 11.453125 0 L 8.5625 0 L 8.5625 -0.296875 C 8.5625 -0.390625 8.582031 -0.457031 8.625 -0.5 C 8.675781 -0.539062 8.753906 -0.566406 8.859375 -0.578125 L 9.5625 -0.59375 L 8.4375 -3.5 L 3.265625 -3.5 L 2.125 -0.609375 L 2.890625 -0.578125 C 2.984375 -0.566406 3.050781 -0.539062 3.09375 -0.5 C 3.144531 -0.457031 3.171875 -0.390625 3.171875 -0.296875 L 3.171875 0 L 0.28125 0 L 0.28125 -0.296875 C 0.28125 -0.390625 0.300781 -0.457031 0.34375 -0.5 C 0.394531 -0.539062 0.472656 -0.566406 0.578125 -0.578125 L 1.296875 -0.609375 L 5.4375 -10.703125 L 6.25 -10.703125 L 10.390625 -0.609375 Z M 8.1875 -4.078125 L 6.09375 -9.28125 L 5.84375 -9.953125 L 5.609375 -9.28125 L 3.5 -4.078125 Z M 8.1875 -4.078125 "/></g></g></g><g fill="#ffffff" fill-opacity="1"><g transform="translate(171.236257, 152.424376)"><g/></g></g><g fill="#ffffff" fill-opacity="1"><g transform="translate(176.840453, 152.424376)"><g><path d="M 8.4375 -7.515625 C 8.4375 -6.859375 8.269531 -6.285156 7.9375 -5.796875 C 7.613281 -5.316406 7.160156 -4.945312 6.578125 -4.6875 C 6.003906 -4.4375 5.359375 -4.3125 4.640625 -4.3125 L 2.8125 -4.3125 L 2.8125 -0.609375 L 3.78125 -0.578125 C 3.976562 -0.554688 4.078125 -0.460938 4.078125 -0.296875 L 4.078125 0 L 0.75 0 L 0.75 -0.296875 C 0.75 -0.460938 0.851562 -0.554688 1.0625 -0.578125 L 2.046875 -0.609375 L 2.046875 -10.109375 L 1.0625 -10.140625 C 0.851562 -10.160156 0.75 -10.25 0.75 -10.40625 L 0.75 -10.703125 L 4.640625 -10.703125 C 5.847656 -10.703125 6.78125 -10.4375 7.4375 -9.90625 C 8.101562 -9.375 8.4375 -8.578125 8.4375 -7.515625 Z M 7.65625 -7.53125 C 7.65625 -8.382812 7.390625 -9.023438 6.859375 -9.453125 C 6.335938 -9.878906 5.597656 -10.09375 4.640625 -10.09375 L 2.8125 -10.09375 L 2.8125 -4.921875 L 4.640625 -4.921875 C 5.535156 -4.921875 6.257812 -5.15625 6.8125 -5.625 C 7.375 -6.09375 7.65625 -6.726562 7.65625 -7.53125 Z M 7.65625 -7.53125 "/></g></g></g><g fill="#ffffff" fill-opacity="1"><g transform="translate(187.760793, 152.424376)"><g><path d="M 9.390625 -0.578125 C 9.578125 -0.566406 9.671875 -0.472656 9.671875 -0.296875 L 9.671875 0 L 8.609375 0 C 8.515625 0 8.441406 -0.015625 8.390625 -0.046875 C 8.335938 -0.0859375 8.285156 -0.140625 8.234375 -0.203125 L 4.8125 -4.53125 C 4.695312 -4.664062 4.59375 -4.75 4.5 -4.78125 C 4.40625 -4.8125 4.265625 -4.828125 4.078125 -4.828125 L 2.8125 -4.828125 L 2.8125 -0.609375 L 3.78125 -0.578125 C 3.976562 -0.554688 4.078125 -0.460938 4.078125 -0.296875 L 4.078125 0 L 0.75 0 L 0.75 -0.296875 C 0.75 -0.460938 0.851562 -0.554688 1.0625 -0.578125 L 2.046875 -0.609375 L 2.046875 -10.109375 L 1.0625 -10.140625 C 0.863281 -10.148438 0.765625 -10.238281 0.765625 -10.40625 L 0.765625 -10.703125 L 4.640625 -10.703125 C 5.796875 -10.703125 6.695312 -10.476562 7.34375 -10.03125 C 7.988281 -9.582031 8.3125 -8.867188 8.3125 -7.890625 C 8.3125 -7.054688 8.03125 -6.375 7.46875 -5.84375 C 6.90625 -5.3125 6.171875 -5.003906 5.265625 -4.921875 C 5.398438 -4.847656 5.515625 -4.75 5.609375 -4.625 L 8.8125 -0.59375 Z M 4.53125 -5.40625 C 5.445312 -5.40625 6.175781 -5.613281 6.71875 -6.03125 C 7.269531 -6.457031 7.546875 -7.054688 7.546875 -7.828125 C 7.546875 -9.335938 6.578125 -10.09375 4.640625 -10.09375 L 2.8125 -10.09375 L 2.8125 -5.40625 Z M 4.53125 -5.40625 "/></g></g></g><g fill="#ffffff" fill-opacity="1"><g transform="translate(199.934663, 152.424376)"><g><path d="M 8.453125 -8.484375 L 8.0625 -8.484375 C 7.875 -8.484375 7.769531 -8.609375 7.75 -8.859375 L 7.6875 -10.0625 L 2.8125 -10.0625 L 2.8125 -5.71875 L 7.078125 -5.71875 L 7.078125 -5.109375 L 2.8125 -5.109375 L 2.8125 -0.65625 L 7.6875 -0.65625 L 7.75 -1.84375 C 7.769531 -2.09375 7.875 -2.21875 8.0625 -2.21875 L 8.453125 -2.21875 L 8.453125 0 L 0.765625 0 L 0.765625 -0.296875 C 0.765625 -0.472656 0.863281 -0.566406 1.0625 -0.578125 L 2.046875 -0.609375 L 2.046875 -10.109375 L 1.0625 -10.140625 C 0.851562 -10.160156 0.75 -10.25 0.75 -10.40625 L 0.75 -10.703125 L 8.453125 -10.703125 Z M 8.453125 -8.484375 "/></g></g></g><g fill="#ffffff" fill-opacity="1"><g transform="translate(211.292981, 152.424376)"><g><path d="M 12.59375 -0.609375 L 13.5625 -0.578125 C 13.769531 -0.554688 13.875 -0.460938 13.875 -0.296875 L 13.875 0 L 10.609375 0 L 10.609375 -0.296875 C 10.609375 -0.460938 10.707031 -0.554688 10.90625 -0.578125 L 11.921875 -0.609375 L 11.921875 -9.125 C 11.921875 -9.300781 11.925781 -9.441406 11.9375 -9.546875 L 7.734375 -2.0625 C 7.660156 -1.925781 7.5625 -1.859375 7.4375 -1.859375 L 7.3125 -1.859375 C 7.175781 -1.859375 7.078125 -1.925781 7.015625 -2.0625 L 2.6875 -9.546875 C 2.695312 -9.441406 2.703125 -9.300781 2.703125 -9.125 L 2.703125 -0.609375 L 3.71875 -0.578125 C 3.914062 -0.554688 4.015625 -0.460938 4.015625 -0.296875 L 4.015625 0 L 0.75 0 L 0.75 -0.296875 C 0.75 -0.460938 0.851562 -0.554688 1.0625 -0.578125 L 2.046875 -0.609375 L 2.046875 -10.109375 L 1.0625 -10.140625 C 0.851562 -10.160156 0.75 -10.25 0.75 -10.40625 L 0.75 -10.703125 L 2.5625 -10.703125 C 2.65625 -10.703125 2.71875 -10.691406 2.75 -10.671875 C 2.78125 -10.660156 2.816406 -10.625 2.859375 -10.5625 L 7.171875 -3.109375 C 7.234375 -3.003906 7.300781 -2.851562 7.375 -2.65625 L 7.5625 -3.125 L 11.765625 -10.5625 C 11.816406 -10.625 11.859375 -10.660156 11.890625 -10.671875 C 11.921875 -10.691406 11.976562 -10.703125 12.0625 -10.703125 L 13.875 -10.703125 L 13.875 -10.40625 C 13.875 -10.25 13.769531 -10.160156 13.5625 -10.140625 L 12.59375 -10.109375 Z M 12.59375 -0.609375 "/></g></g></g><g fill="#ffffff" fill-opacity="1"><g transform="translate(227.816418, 152.424376)"><g><path d="M 2.8125 -0.609375 L 3.796875 -0.578125 C 3.984375 -0.566406 4.078125 -0.472656 4.078125 -0.296875 L 4.078125 0 L 0.75 0 L 0.75 -0.296875 C 0.75 -0.460938 0.851562 -0.554688 1.0625 -0.578125 L 2.046875 -0.609375 L 2.046875 -10.09375 L 1.0625 -10.125 C 0.851562 -10.144531 0.75 -10.234375 0.75 -10.390625 L 0.75 -10.703125 L 4.078125 -10.703125 L 4.078125 -10.390625 C 4.078125 -10.222656 3.984375 -10.132812 3.796875 -10.125 L 2.8125 -10.09375 Z M 2.8125 -0.609375 "/></g></g></g><g fill="#ffffff" fill-opacity="1"><g transform="translate(234.553306, 152.424376)"><g><path d="M 11 -10.40625 C 11 -10.25 10.898438 -10.160156 10.703125 -10.140625 L 9.734375 -10.109375 L 9.734375 -4.078125 C 9.734375 -3.273438 9.5625 -2.554688 9.21875 -1.921875 C 8.882812 -1.285156 8.410156 -0.785156 7.796875 -0.421875 C 7.191406 -0.0546875 6.488281 0.125 5.6875 0.125 C 4.863281 0.125 4.144531 -0.0546875 3.53125 -0.421875 C 2.925781 -0.785156 2.457031 -1.285156 2.125 -1.921875 C 1.789062 -2.554688 1.625 -3.273438 1.625 -4.078125 L 1.625 -10.109375 L 0.65625 -10.140625 C 0.457031 -10.148438 0.359375 -10.238281 0.359375 -10.40625 L 0.359375 -10.703125 L 3.875 -10.703125 L 3.875 -10.40625 C 3.875 -10.25 3.769531 -10.160156 3.5625 -10.140625 L 2.40625 -10.109375 L 2.40625 -4.078125 C 2.40625 -3.398438 2.535156 -2.796875 2.796875 -2.265625 C 3.066406 -1.734375 3.445312 -1.3125 3.9375 -1 C 4.4375 -0.695312 5.019531 -0.546875 5.6875 -0.546875 C 6.34375 -0.546875 6.914062 -0.695312 7.40625 -1 C 7.90625 -1.3125 8.285156 -1.734375 8.546875 -2.265625 C 8.816406 -2.804688 8.953125 -3.410156 8.953125 -4.078125 L 8.953125 -10.109375 L 7.796875 -10.140625 C 7.597656 -10.160156 7.5 -10.25 7.5 -10.40625 L 7.5 -10.703125 L 11 -10.703125 Z M 11 -10.40625 "/></g></g></g><g fill="#ffffff" fill-opacity="1"><g transform="translate(247.859868, 152.424376)"><g><path d="M 12.59375 -0.609375 L 13.5625 -0.578125 C 13.769531 -0.554688 13.875 -0.460938 13.875 -0.296875 L 13.875 0 L 10.609375 0 L 10.609375 -0.296875 C 10.609375 -0.460938 10.707031 -0.554688 10.90625 -0.578125 L 11.921875 -0.609375 L 11.921875 -9.125 C 11.921875 -9.300781 11.925781 -9.441406 11.9375 -9.546875 L 7.734375 -2.0625 C 7.660156 -1.925781 7.5625 -1.859375 7.4375 -1.859375 L 7.3125 -1.859375 C 7.175781 -1.859375 7.078125 -1.925781 7.015625 -2.0625 L 2.6875 -9.546875 C 2.695312 -9.441406 2.703125 -9.300781 2.703125 -9.125 L 2.703125 -0.609375 L 3.71875 -0.578125 C 3.914062 -0.554688 4.015625 -0.460938 4.015625 -0.296875 L 4.015625 0 L 0.75 0 L 0.75 -0.296875 C 0.75 -0.460938 0.851562 -0.554688 1.0625 -0.578125 L 2.046875 -0.609375 L 2.046875 -10.109375 L 1.0625 -10.140625 C 0.851562 -10.160156 0.75 -10.25 0.75 -10.40625 L 0.75 -10.703125 L 2.5625 -10.703125 C 2.65625 -10.703125 2.71875 -10.691406 2.75 -10.671875 C 2.78125 -10.660156 2.816406 -10.625 2.859375 -10.5625 L 7.171875 -3.109375 C 7.234375 -3.003906 7.300781 -2.851562 7.375 -2.65625 L 7.5625 -3.125 L 11.765625 -10.5625 C 11.816406 -10.625 11.859375 -10.660156 11.890625 -10.671875 C 11.921875 -10.691406 11.976562 -10.703125 12.0625 -10.703125 L 13.875 -10.703125 L 13.875 -10.40625 C 13.875 -10.25 13.769531 -10.160156 13.5625 -10.140625 L 12.59375 -10.109375 Z M 12.59375 -0.609375 "/></g></g></g></svg>